<svg width="137" height="35" viewBox="0 0 137 35" fill="none" xmlns="http://www.w3.org/2000/svg">
<g clip-path="url(#clip0)">
<path d="M63.297 7.43567V11.2466H55.3413V15.3636H61.2942V19.0633H55.3413V26.9634H50.5845V7.43567H63.297ZM68.1894 9.82796C67.3549 9.82796 66.6687 9.58687 66.1309 9.10471C65.6116 8.604 65.352 7.99202 65.352 7.26877C65.352 6.52698 65.6116 5.915 66.1309 5.43283C66.6687 4.93212 67.3549 4.68177 68.1894 4.68177C69.0053 4.68177 69.673 4.93212 70.1922 5.43283C70.73 5.915 70.9989 6.52698 70.9989 7.26877C70.9989 7.99202 70.73 8.604 70.1922 9.10471C69.673 9.58687 69.0053 9.82796 68.1894 9.82796ZM70.5538 11.4414V26.9634H65.7971V11.4414H70.5538ZM78.7577 14.0284C79.3141 13.1753 80.0095 12.5077 80.844 12.0255C81.6786 11.5248 82.6058 11.2745 83.6258 11.2745V16.3094H82.3184C81.1315 16.3094 80.2413 16.569 79.6479 17.0883C79.0545 17.589 78.7577 18.4791 78.7577 19.7587V26.9634H74.001V11.4414H78.7577V14.0284ZM100.531 18.952C100.531 19.3971 100.503 19.8607 100.448 20.3429H89.6825C89.7567 21.3072 90.0627 22.049 90.6005 22.5683C91.1568 23.069 91.8337 23.3193 92.6312 23.3193C93.818 23.3193 94.6433 22.8186 95.1069 21.8172H100.17C99.91 22.8372 99.4371 23.7551 98.751 24.5711C98.0833 25.3871 97.2396 26.0269 96.2196 26.4905C95.1996 26.9541 94.0591 27.1859 92.7981 27.1859C91.2774 27.1859 89.9236 26.8614 88.7367 26.2123C87.5499 25.5632 86.6226 24.636 85.955 23.4306C85.2874 22.2252 84.9536 20.8158 84.9536 19.2024C84.9536 17.589 85.2781 16.1796 85.9272 14.9741C86.5948 13.7687 87.5221 12.8415 88.7089 12.1924C89.8958 11.5434 91.2588 11.2188 92.7981 11.2188C94.3002 11.2188 95.6354 11.5341 96.8037 12.1646C97.9721 12.7951 98.8808 13.6946 99.5298 14.8629C100.197 16.0312 100.531 17.3942 100.531 18.952ZM95.6632 17.7002C95.6632 16.8843 95.3851 16.2352 94.8287 15.753C94.2724 15.2709 93.5769 15.0298 92.7424 15.0298C91.945 15.0298 91.2681 15.2616 90.7118 15.7252C90.174 16.1888 89.8402 16.8472 89.7104 17.7002H95.6632ZM102.095 19.2024C102.095 17.589 102.419 16.1796 103.068 14.9741C103.736 13.7687 104.654 12.8415 105.822 12.1924C107.009 11.5434 108.363 11.2188 109.884 11.2188C111.831 11.2188 113.454 11.7288 114.752 12.7488C116.068 13.7687 116.931 15.206 117.339 17.0604H112.276C111.849 15.8736 111.024 15.2801 109.8 15.2801C108.929 15.2801 108.233 15.6232 107.714 16.3094C107.195 16.977 106.935 17.9413 106.935 19.2024C106.935 20.4634 107.195 21.437 107.714 22.1232C108.233 22.7908 108.929 23.1246 109.8 23.1246C111.024 23.1246 111.849 22.5312 112.276 21.3443H117.339C116.931 23.1617 116.068 24.5896 114.752 25.6282C113.435 26.6667 111.812 27.1859 109.884 27.1859C108.363 27.1859 107.009 26.8614 105.822 26.2123C104.654 25.5632 103.736 24.636 103.068 23.4306C102.419 22.2252 102.095 20.8158 102.095 19.2024ZM129.369 26.9634L124.64 20.4541V26.9634H119.883V6.37862H124.64V17.7559L129.341 11.4414H135.21L128.757 19.2302L135.266 26.9634H129.369Z" fill="white"/>
<path d="M12.5079 20.8765L32.8651 4.88827C33.7467 4.19586 35.0238 4.92428 34.8765 6.0356L31.5346 31.2611C31.4195 32.13 30.4692 32.6138 29.6989 32.1956L12.6837 22.9583C11.8936 22.5294 11.801 21.4317 12.5079 20.8765Z" fill="#21B9B0"/>
<path d="M1.60341 18.0242L21.9606 2.03598C22.8422 1.34356 24.1192 2.07199 23.972 3.1833L20.6301 28.4088C20.515 29.2777 19.5646 29.7615 18.7943 29.3433L1.77911 20.106C0.989058 19.6771 0.896417 18.5794 1.60341 18.0242Z" fill="#21B9B0"/>
<path d="M11.0125 33.0098L11.0125 3.42123C11.0125 1.73969 13.0549 0.908094 14.2295 2.1114L34.5468 22.9257C35.4652 23.8666 35.1554 25.4358 33.9484 25.957L13.6311 34.7313C12.3931 35.2659 11.0125 34.3583 11.0125 33.0098Z" fill="#40FDE6"/>
</g>
<defs>
<clipPath id="clip0">
<rect width="136" height="34" fill="white" transform="translate(0.10791 0.946777)"/>
</clipPath>
</defs>
</svg>
